<svg xmlns="http://www.w3.org/2000/svg" viewBox="0 0 133.08 127.19"><defs><style>.cls-1{fill:#fff;}</style></defs><title>Aktiv 1</title><g id="Lag_2" data-name="Lag 2"><g id="Layer_1" data-name="Layer 1"><path class="cls-1" d="M124.75,102.74h-1.49V98.28h-1.42V96.87h4.38v1.41h-1.47Zm2.47,0V96.87h1.2l1.74,2.37,1.72-2.35h1.2v5.85h-1.41V99.59l0-.41-.2.35-1.25,1.7h-.18l-1.27-1.7-.18-.33,0,.39v3.15Z"/><path class="cls-1" d="M51.06,93.29a1.42,1.42,0,0,1,1.41,1.42v9.34a.87.87,0,0,1-.73,1A28,28,0,0,0,46.43,107a17,17,0,0,0-5.92,4.55,14.19,14.19,0,0,0-2.93,7.89c0,.57-.23.7-.74.42s-.87-.39-1.31-.59a60.77,60.77,0,0,1-12.72-8.18,63.37,63.37,0,0,1-17-22.13A67.37,67.37,0,0,1,.57,70.7,78.48,78.48,0,0,1,0,62.82a62.82,62.82,0,0,1,125.64,0A72.27,72.27,0,0,1,125,72c-.54,2.65-1,5.31-1.77,7.91a62.34,62.34,0,0,1-3,8.27c-1.71,3.76-3.93,7.3-4.48,11.54a23.69,23.69,0,0,0,2.51,14.76,42.93,42.93,0,0,0,7.35,10.24s2.6,2.45.61,2.45a129,129,0,0,1-14-.75h-.07a16.4,16.4,0,0,1-10.72-5.75c-5.08-6-15.12-15.63-27.37-15.63-.72,0-.83-.52-.82-1.13V94.35a1.07,1.07,0,0,1,1.06-1.06h1.4c24.28,0,28.76-21.47,28.76-21.47a1.9,1.9,0,0,1,1.07-1.37,6.84,6.84,0,0,0,2.21-1.79c2.25-2.92,2.51-6.31,2.35-9.8,0,0-.57-8.15-5.07-8.73a2.49,2.49,0,0,1-1.64-.83,3,3,0,0,1-.47-.83,26,26,0,0,0-9.34-11.61,27.62,27.62,0,0,0-16-5c-1.59,0-3.19,0-4.79,0a1.36,1.36,0,0,1-1.07-.3,10.2,10.2,0,0,0-6.43-2.8.85.85,0,0,1-.91-1V21.16a1.59,1.59,0,0,1,.88-1.42,5.24,5.24,0,1,0-4.79-.06,1.58,1.58,0,0,1,.87,1.4v6.57c0,.76-.28,1.06-1.05,1.14a9.5,9.5,0,0,0-6.09,2.66,1.71,1.71,0,0,1-1.31.43c-2.61.1-5.21,0-7.83.25A26.79,26.79,0,0,0,22.82,48.22,3.24,3.24,0,0,1,21,50.13C18,51.4,16.46,53.87,15.86,57a20.85,20.85,0,0,0-.16,5.63c.26,3.32,1.43,6.2,4.56,7.92.33.18.67.36.77.8.17.77.34,1.55.57,2.31,0,0,4.51,19.64,25.35,19.64h4.11Z"/><path class="cls-1" d="M94.41,56.47a16.43,16.43,0,0,0-9.77-11.95,14.24,14.24,0,0,0-6.22-1.27H47.22A14.24,14.24,0,0,0,41,44.52a16.47,16.47,0,0,0-9.78,11.95,29.47,29.47,0,0,0-.49,7.9,22.77,22.77,0,0,0,1.4,7.47,16.67,16.67,0,0,0,15.2,10.37h31a16.67,16.67,0,0,0,15.2-10.37,22.77,22.77,0,0,0,1.4-7.47A29.48,29.48,0,0,0,94.41,56.47ZM80.84,70h-18a2,2,0,1,1,0-4h18a2,2,0,0,1,0,4Zm0-10.51h-36a2,2,0,1,1,0-4h36a2,2,0,0,1,0,4Z"/></g></g></svg>